#N canvas 714 447 484 374 12;
#X declare -lib timbreID/timbreIDLib;
#X obj 17 13 cnv 15 80 80 empty empty empty 20 12 0 14 -233017 -66577
0;
#N canvas 375 374 652 439 routing 0;
#X msg 9 39 \; pd dsp \$1;
#X obj 9 11 r on_off;
#X text 9 80 starts DSP;
#X connect 1 0 0 0;
#X restore 109 15 pd routing;
#X obj 37 24 tgl 40 0 on_off empty empty 17 7 0 10 -258113 -1 -1 0
1;
#X obj 109 69 declare -lib timbreID/timbreIDLib;
#X text 36 72 START;
#N canvas 27 129 838 789 ws_routing 0;
#N canvas 267 392 225 314 OnOff 0;
#X obj 13 177 spigot;
#X obj 26 18 r on_off;
#X obj 107 111 -;
#X msg 107 77 1;
#X obj 107 55 bng 15 250 50 0 empty empty empty 17 7 0 10 -262144 -1
-1;
#X obj 101 176 spigot;
#X obj 13 211 bng 15 250 50 0 empty empty empty 17 7 0 10 -262144 -1
-1;
#X obj 13 231 outlet;
#X obj 102 207 bng 15 250 50 0 empty empty empty 17 7 0 10 -262144
-1 -1;
#X obj 102 227 outlet;
#X text 9 259 Bang left when toggled on \, bang right when toggled
off, f 27;
#X connect 0 0 6 0;
#X connect 1 0 4 0;
#X connect 1 0 2 1;
#X connect 1 0 5 0;
#X connect 1 0 0 1;
#X connect 1 0 0 0;
#X connect 2 0 5 1;
#X connect 3 0 2 0;
#X connect 4 0 3 0;
#X connect 5 0 8 0;
#X connect 6 0 7 0;
#X connect 8 0 9 0;
#X restore 359 399 pd OnOff;
#X obj 340 495 print;
#X obj 545 498 print;
#X obj 121 421 websocket-server 6904;
#N canvas 790 171 896 394 channel1 0;
#X obj 101 54 env~ 1024;
#X obj 697 303 s~ adc1;
#X obj 100 28 r~ adc1;
#X obj 101 224 - 100;
#X obj 101 248 s adc1gain;
#X obj 272 253 r~ adc1;
#X floatatom 258 308 5 0 0 0 - - -;
#X obj 463 230 specIrregularity~ 1024;
#X obj 476 204 r~ adc1;
#X floatatom 463 254 5 0 0 0 - - -;
#X text 17 0 INPUT: CHANNEL 1;
#X obj 118 169 snapshot~;
#X obj 127 140 metro 80;
#X obj 127 111 r on_off;
#X floatatom 149 200 5 0 0 0 - - -;
#X text 16 92 send to gain meter, f 11;
#X text 101 283 send gain;
#X text 257 348 send pitch;
#X text 462 295 send irregularity;
#X obj 149 228 outlet;
#X obj 258 331 outlet;
#X obj 463 277 outlet;
#X msg 647 146 start;
#X msg 658 173 stop;
#X obj 647 235 readsf~;
#X obj 647 115 t b b;
#X obj 648 81 bng 15 250 50 0 empty empty empty 17 7 0 10 -262144 -1
-1;
#X msg 730 162 open boulez.wav;
#X obj 698 23 r START;
#X obj 783 51 r END;
#X obj 266 90 bng 15 250 50 0 empty empty empty 17 7 0 10 -262144 -1
-1;
#X obj 222 240 bng 15 250 50 0 empty empty empty 17 7 0 10 -262144
-1 -1;
#X msg 267 120 debounce 170;
#X obj 266 63 loadbang;
#X obj 258 283 cepstrumPitch~ 2048 55 105;
#X obj 256 188 bark~ 2048 128 0.5;
#X msg 274 146 thresh 5 8;
#X obj 257 27 r~ adc1;
#X connect 0 0 3 0;
#X connect 0 0 11 0;
#X connect 2 0 0 0;
#X connect 3 0 4 0;
#X connect 5 0 34 0;
#X connect 6 0 20 0;
#X connect 7 0 9 0;
#X connect 8 0 7 0;
#X connect 9 0 21 0;
#X connect 11 0 14 0;
#X connect 12 0 11 0;
#X connect 13 0 12 0;
#X connect 14 0 19 0;
#X connect 22 0 24 0;
#X connect 23 0 24 0;
#X connect 24 0 1 0;
#X connect 24 1 26 0;
#X connect 25 0 22 0;
#X connect 25 1 27 0;
#X connect 26 0 25 0;
#X connect 27 0 24 0;
#X connect 28 0 26 0;
#X connect 29 0 23 0;
#X connect 30 0 32 0;
#X connect 30 0 36 0;
#X connect 32 0 35 0;
#X connect 33 0 30 0;
#X connect 34 0 6 0;
#X connect 35 0 31 0;
#X connect 35 0 7 0;
#X connect 35 0 34 0;
#X connect 36 0 35 0;
#X connect 37 0 35 0;
#X restore 25 20 pd channel1;
#N canvas 259 347 888 406 channel2 0;
#X obj 101 224 - 100;
#X floatatom 258 308 5 0 0 0 - - -;
#X obj 463 230 specIrregularity~ 1024;
#X floatatom 463 254 5 0 0 0 - - -;
#X obj 118 169 snapshot~;
#X obj 127 140 metro 80;
#X obj 127 111 r on_off;
#X floatatom 149 200 5 0 0 0 - - -;
#X text 16 92 send to gain meter, f 11;
#X text 101 283 send gain;
#X text 257 348 send pitch;
#X text 462 295 send irregularity;
#X obj 149 228 outlet;
#X obj 258 331 outlet;
#X obj 463 277 outlet;
#X msg 647 146 start;
#X msg 658 173 stop;
#X obj 647 235 readsf~;
#X obj 647 115 t b b;
#X obj 648 81 bng 15 250 50 0 empty empty empty 17 7 0 10 -262144 -1
-1;
#X obj 698 23 r START;
#X obj 783 51 r END;
#X obj 266 90 bng 15 250 50 0 empty empty empty 17 7 0 10 -262144 -1
-1;
#X obj 222 240 bng 15 250 50 0 empty empty empty 17 7 0 10 -262144
-1 -1;
#X msg 267 120 debounce 170;
#X obj 266 63 loadbang;
#X obj 258 283 cepstrumPitch~ 2048 55 105;
#X obj 256 188 bark~ 2048 128 0.5;
#X msg 274 146 thresh 5 8;
#X msg 730 162 open mikka.wav;
#X text 17 0 INPUT: CHANNEL 2;
#X obj 100 28 r~ adc2;
#X obj 101 248 s adc2gain;
#X obj 257 27 r~ adc2;
#X obj 272 253 r~ adc2;
#X obj 476 204 r~ adc2;
#X obj 697 303 s~ adc2;
#X obj 101 54 env~ 2048;
#X connect 0 0 32 0;
#X connect 1 0 13 0;
#X connect 2 0 3 0;
#X connect 3 0 14 0;
#X connect 4 0 7 0;
#X connect 5 0 4 0;
#X connect 6 0 5 0;
#X connect 7 0 12 0;
#X connect 15 0 17 0;
#X connect 16 0 17 0;
#X connect 17 0 36 0;
#X connect 17 1 19 0;
#X connect 18 0 15 0;
#X connect 18 1 29 0;
#X connect 19 0 18 0;
#X connect 20 0 19 0;
#X connect 21 0 16 0;
#X connect 22 0 24 0;
#X connect 22 0 28 0;
#X connect 24 0 27 0;
#X connect 25 0 22 0;
#X connect 26 0 1 0;
#X connect 27 0 23 0;
#X connect 27 0 2 0;
#X connect 27 0 26 0;
#X connect 28 0 27 0;
#X connect 29 0 17 0;
#X connect 31 0 37 0;
#X connect 33 0 27 0;
#X connect 34 0 26 0;
#X connect 35 0 2 0;
#X connect 37 0 0 0;
#X connect 37 0 4 0;
#X restore 118 20 pd channel2;
#N canvas 654 501 901 472 channel3 0;
#X obj 101 224 - 100;
#X floatatom 258 308 5 0 0 0 - - -;
#X obj 463 230 specIrregularity~ 1024;
#X floatatom 463 254 5 0 0 0 - - -;
#X obj 118 169 snapshot~;
#X obj 127 140 metro 80;
#X obj 127 111 r on_off;
#X floatatom 149 200 5 0 0 0 - - -;
#X text 16 92 send to gain meter, f 11;
#X text 101 283 send gain;
#X text 257 348 send pitch;
#X text 462 295 send irregularity;
#X obj 149 228 outlet;
#X obj 258 331 outlet;
#X obj 463 277 outlet;
#X msg 647 146 start;
#X msg 658 173 stop;
#X obj 647 235 readsf~;
#X obj 647 115 t b b;
#X obj 648 81 bng 15 250 50 0 empty empty empty 17 7 0 10 -262144 -1
-1;
#X obj 698 23 r START;
#X obj 783 51 r END;
#X obj 266 90 bng 15 250 50 0 empty empty empty 17 7 0 10 -262144 -1
-1;
#X obj 222 240 bng 15 250 50 0 empty empty empty 17 7 0 10 -262144
-1 -1;
#X msg 267 120 debounce 170;
#X obj 266 63 loadbang;
#X msg 730 162 open penderecki.wav;
#X text 17 0 INPUT: CHANNEL 3;
#X obj 100 27 r~ adc3;
#X obj 257 27 r~ adc3;
#X obj 476 204 r~ adc3;
#X obj 697 303 s~ adc3;
#X obj 272 253 r~ adc3;
#X obj 256 188 bark~ 2048 128 0.5;
#X obj 258 283 cepstrumPitch~ 4096 48 100;
#X msg 274 146 thresh 5 9;
#X obj 101 248 s adc3gain;
#X obj 101 54 env~ 2048;
#X connect 0 0 36 0;
#X connect 1 0 13 0;
#X connect 2 0 3 0;
#X connect 3 0 14 0;
#X connect 4 0 7 0;
#X connect 5 0 4 0;
#X connect 6 0 5 0;
#X connect 7 0 12 0;
#X connect 15 0 17 0;
#X connect 16 0 17 0;
#X connect 17 0 31 0;
#X connect 17 1 19 0;
#X connect 18 0 15 0;
#X connect 18 1 26 0;
#X connect 19 0 18 0;
#X connect 20 0 19 0;
#X connect 21 0 16 0;
#X connect 22 0 24 0;
#X connect 22 0 35 0;
#X connect 24 0 33 0;
#X connect 25 0 22 0;
#X connect 26 0 17 0;
#X connect 28 0 37 0;
#X connect 29 0 33 0;
#X connect 30 0 2 0;
#X connect 32 0 34 0;
#X connect 33 0 23 0;
#X connect 33 0 2 0;
#X connect 33 0 34 0;
#X connect 34 0 1 0;
#X connect 35 0 33 0;
#X connect 37 0 0 0;
#X connect 37 0 4 0;
#X restore 211 20 pd channel3;
#N canvas 819 297 901 472 channel4 0;
#X obj 101 224 - 100;
#X floatatom 258 308 5 0 0 0 - - -;
#X obj 463 230 specIrregularity~ 1024;
#X floatatom 463 254 5 0 0 0 - - -;
#X obj 118 169 snapshot~;
#X obj 127 140 metro 80;
#X obj 127 111 r on_off;
#X floatatom 149 200 5 0 0 0 - - -;
#X text 16 92 send to gain meter, f 11;
#X text 101 283 send gain;
#X text 257 348 send pitch;
#X text 462 295 send irregularity;
#X obj 149 228 outlet;
#X obj 258 331 outlet;
#X obj 463 277 outlet;
#X msg 647 146 start;
#X msg 658 173 stop;
#X obj 647 235 readsf~;
#X obj 647 115 t b b;
#X obj 648 81 bng 15 250 50 0 empty empty empty 17 7 0 10 -262144 -1
-1;
#X obj 698 23 r START;
#X obj 783 51 r END;
#X obj 266 90 bng 15 250 50 0 empty empty empty 17 7 0 10 -262144 -1
-1;
#X obj 222 240 bng 15 250 50 0 empty empty empty 17 7 0 10 -262144
-1 -1;
#X msg 267 120 debounce 170;
#X obj 266 63 loadbang;
#X obj 256 188 bark~ 2048 128 0.5;
#X msg 274 146 thresh 5 9;
#X msg 730 162 open saariaho.wav;
#X text 17 0 INPUT: CHANNEL 4;
#X obj 100 27 r~ adc4;
#X obj 257 27 r~ adc4;
#X obj 272 253 r~ adc4;
#X obj 101 248 s adc4gain;
#X obj 477 204 r~ adc4;
#X obj 258 283 cepstrumPitch~ 4096 36 88;
#X obj 697 303 s~ adc4;
#X obj 101 54 env~ 2048;
#X connect 0 0 33 0;
#X connect 1 0 13 0;
#X connect 2 0 3 0;
#X connect 3 0 14 0;
#X connect 4 0 7 0;
#X connect 5 0 4 0;
#X connect 6 0 5 0;
#X connect 7 0 12 0;
#X connect 15 0 17 0;
#X connect 16 0 17 0;
#X connect 17 0 36 0;
#X connect 17 1 19 0;
#X connect 18 0 15 0;
#X connect 18 1 28 0;
#X connect 19 0 18 0;
#X connect 20 0 19 0;
#X connect 21 0 16 0;
#X connect 22 0 24 0;
#X connect 22 0 27 0;
#X connect 24 0 26 0;
#X connect 25 0 22 0;
#X connect 26 0 23 0;
#X connect 26 0 2 0;
#X connect 26 0 35 0;
#X connect 27 0 26 0;
#X connect 28 0 17 0;
#X connect 30 0 37 0;
#X connect 31 0 26 0;
#X connect 32 0 35 0;
#X connect 34 0 2 0;
#X connect 35 0 1 0;
#X connect 37 0 0 0;
#X connect 37 0 4 0;
#X restore 302 19 pd channel4;
#N canvas 340 143 901 472 channel5 0;
#X obj 101 224 - 100;
#X obj 225 57 metro 80;
#X obj 225 28 r on_off;
#X obj 387 106 specIrregularity~ 1024;
#X obj 386 55 metro 80;
#X obj 386 26 r on_off;
#X floatatom 387 130 5 0 0 0 - - -;
#X obj 118 169 snapshot~;
#X obj 127 140 metro 80;
#X obj 127 111 r on_off;
#X floatatom 149 200 5 0 0 0 - - -;
#X text 594 179 send to gain meter, f 11;
#X text 101 283 send gain;
#X text 225 282 send pitch;
#X text 386 171 send irregularity;
#X obj 149 228 outlet;
#X obj 226 265 outlet;
#X obj 387 153 outlet;
#X obj 572 62 +~;
#X obj 636 61 +~;
#X obj 624 102 +~;
#X obj 621 153 s~ adc5;
#X text 17 0 INPUT: CHANNEL 5;
#X obj 100 28 r~ adc5;
#X obj 101 248 s adc5gain;
#X obj 239 82 r~ adc5;
#X obj 400 80 r~ adc5;
#X obj 536 16 r~ adc1;
#X obj 599 17 r~ adc2;
#X obj 663 17 r~ adc3;
#X obj 731 14 r~ adc4;
#X obj 782 147 dac~;
#X obj 101 54 env~ 2048;
#X obj 229 120 specCentroid~ 1024;
#X obj 230 207 expr 69 + 12 * log($f1/440);
#X floatatom 230 231 5 0 0 0 - - -;
#X connect 0 0 24 0;
#X connect 1 0 33 0;
#X connect 2 0 1 0;
#X connect 3 0 6 0;
#X connect 4 0 3 0;
#X connect 5 0 4 0;
#X connect 6 0 17 0;
#X connect 7 0 10 0;
#X connect 8 0 7 0;
#X connect 9 0 8 0;
#X connect 10 0 15 0;
#X connect 18 0 20 0;
#X connect 19 0 20 1;
#X connect 20 0 21 0;
#X connect 20 0 31 0;
#X connect 20 0 31 1;
#X connect 23 0 32 0;
#X connect 25 0 33 0;
#X connect 26 0 3 0;
#X connect 27 0 18 0;
#X connect 28 0 18 1;
#X connect 29 0 19 0;
#X connect 30 0 19 1;
#X connect 32 0 0 0;
#X connect 32 0 7 0;
#X connect 33 0 34 0;
#X connect 34 0 35 0;
#X connect 35 0 16 0;
#X restore 394 17 pd channel5;
#X obj 94 338 pack \$1 \$2 \$3 \$4 \$5 \$6 \$7 \$8 \$9 \$10 \$11 \$12
\$13 \$14 \$15;
#X msg 340 471 DSP is on. Patch starting;
#X msg 545 474 DSP off.;
#X obj 452 585 s START;
#X obj 596 563 s END;
#X connect 0 0 10 0;
#X connect 0 0 12 0;
#X connect 0 1 11 0;
#X connect 0 1 13 0;
#X connect 4 0 9 0;
#X connect 4 1 9 1;
#X connect 4 2 9 2;
#X connect 5 0 9 3;
#X connect 5 1 9 4;
#X connect 5 2 9 5;
#X connect 6 0 9 6;
#X connect 6 1 9 7;
#X connect 6 2 9 8;
#X connect 7 0 9 9;
#X connect 7 1 9 10;
#X connect 7 2 9 11;
#X connect 8 0 9 12;
#X connect 8 1 9 13;
#X connect 8 2 9 14;
#X connect 9 0 3 0;
#X connect 10 0 1 0;
#X connect 11 0 2 0;
#X restore 109 42 pd ws_routing;
#X obj 17 107 cnv 15 410 220 empty empty empty 20 12 0 14 -232576 -66577
0;
#X obj 26 117 cnv 15 72 200 empty empty empty 20 12 0 14 -260097 -66577
0;
#X obj 31 121 cnv 15 60 150 empty empty empty 20 12 0 14 -262130 -66577
0;
#X obj 39 136 vu 15 120 adc1gain empty -1 -8 0 10 -66577 -1 1 0;
#X text 36 277 CHANNEL;
#X text 57 292 1;
#X obj 186 116 cnv 15 72 200 empty empty empty 20 12 0 14 -260097 -66577
0;
#X obj 265 115 cnv 15 72 200 empty empty empty 20 12 0 14 -260097 -66577
0;
#X obj 106 116 cnv 15 72 200 empty empty empty 20 12 0 14 -260097 -66577
0;
#X obj 111 120 cnv 15 60 150 empty empty empty 20 12 0 14 -262130 -66577
0;
#X obj 121 136 vu 15 120 adc2gain empty -1 -8 0 10 -66577 -1 1 0;
#X text 114 275 CHANNEL;
#X text 135 290 2;
#X obj 191 121 cnv 15 60 150 empty empty empty 20 12 0 14 -262130 -66577
0;
#X obj 204 136 vu 15 120 adc3gain empty -1 -8 0 10 -66577 -1 1 0;
#X text 194 276 CHANNEL;
#X text 215 291 3;
#X obj 270 119 cnv 15 60 150 empty empty empty 20 12 0 14 -262130 -66577
0;
#X obj 281 134 vu 15 120 adc4gain empty -1 -8 0 10 -66577 -1 1 0;
#X text 271 273 CHANNEL;
#X text 292 288 4;
#X obj 347 115 cnv 15 72 200 empty empty empty 20 12 0 14 -159808 -66577
0;
#X obj 352 119 cnv 15 60 150 empty empty empty 20 12 0 14 -204800 -66577
0;
#X obj 360 130 vu 15 120 adc5gain empty -1 -8 0 10 -66577 -1 1 0;
#X text 367 282 MIX;
